<svg height="511pt" viewBox="0 -10 511.99998 511" width="511pt" xmlns="http://www.w3.org/2000/svg"><path d="m507.550781 157.699219c5.359375 5.441406 5.96875 14.027343 1.324219 20.089843-16.265625 21.226563-9.136719 34.632813-33.386719 58.523438-27.789062 27.378906-41.195312 13.769531-68.984375 41.148438-27.785156 27.375-14.375 40.984374-42.160156 68.359374s-41.191406 13.765626-68.976562 41.140626c-27.785157 27.378906-14.375 40.988281-42.160157 68.363281-24.25 23.890625-37.550781 16.5625-59.011719 32.511719-6.128906 4.554687-14.707031 3.820312-20.066406-1.625l-93.648437-95.042969c-6.886719-6.988281-5.59375-18.59375 2.707031-23.820313 18.875-11.886718 31.941406-7.21875 54.410156-29.359375 27.785156-27.375 14.378906-40.984375 42.164063-68.359375 27.78125-27.375 41.191406-13.765625 68.976562-41.140625 27.785157-27.375 14.375-40.984375 42.160157-68.359375 27.785156-27.378906 41.195312-13.769531 68.980468-41.148437 22.472656-22.140625 18-35.277344 30.167969-53.972657 5.351563-8.222656 16.96875-9.34375 23.855469-2.351562zm0 0" fill="#ea4444"/><path d="m508.875 177.785156c-16.265625 21.234375-9.140625 34.632813-33.386719 58.527344-27.792969 27.375-41.199219 13.769531-68.984375 41.144531-27.78125 27.375-14.382812 40.984375-42.164062 68.359375-27.78125 27.378906-41.191406 13.769532-68.972656 41.148438-27.78125 27.375-14.382813 40.984375-42.164063 68.359375-24.242187 23.894531-37.550781 16.5625-59.007813 32.511719-6.136718 4.554687-14.703124 3.820312-20.066406-1.625l-14.3125-14.523438c5.347656 4.039062 12.832032 4.21875 18.351563.125 21.460937-15.949219 34.765625-8.617188 59.011719-32.511719 27.78125-27.375 14.378906-40.984375 42.164062-68.359375 27.78125-27.378906 41.191406-13.769531 68.972656-41.144531 27.792969-27.378906 14.382813-40.984375 42.164063-68.363281 27.78125-27.375 41.191406-13.765625 68.984375-41.144532 24.242187-23.894531 17.117187-37.292968 33.386718-58.527343 4.644532-6.058594 4.03125-14.644531-1.328124-20.089844l-79.355469-80.535156c.601562.453125 1.1875.960937 1.734375 1.519531l93.640625 95.035156c5.363281 5.449219 5.976562 14.035156 1.332031 20.09375zm0 0" fill="#d93131"/><path d="m480.910156 130.664062c-27.785156 27.375-14.375 40.984376-42.164062 68.363282-27.785156 27.378906-41.195313 13.769531-68.980469 41.144531-27.785156 27.378906-14.375 40.988281-42.160156 68.363281-27.785157 27.375-41.195313 13.765625-68.976563 41.140625-27.785156 27.375-14.378906 40.984375-42.164062 68.359375-27.78125 27.375-41.191406 13.765625-68.976563 41.140625l-42.128906-42.757812c27.785156-27.375 41.191406-13.765625 68.976563-41.140625 27.785156-27.375 14.378906-40.984375 42.164062-68.359375 27.78125-27.375 41.191406-13.765625 68.976562-41.140625 27.785157-27.378906 14.375-40.984375 42.160157-68.363282 27.785156-27.375 41.195312-13.765624 68.980469-41.144531 27.789062-27.378906 14.378906-40.984375 42.164062-68.363281zm0 0" fill="#fdd79b"/><path d="m480.914062 130.667969c-27.789062 27.375-14.378906 40.984375-42.164062 68.359375-27.789062 27.378906-41.199219 13.769531-68.984375 41.144531-27.78125 27.378906-14.378906 40.984375-42.164063 68.363281-27.78125 27.375-41.191406 13.765625-68.972656 41.144532-27.78125 27.375-14.382812 40.984374-42.164062 68.359374-27.78125 27.367188-41.191406 13.761719-68.972656 41.136719l-18.261719-18.535156c27.6875-27.195313 41.097656-13.683594 68.835937-41.003906 27.78125-27.375 14.378906-40.980469 42.160156-68.359375 27.785157-27.375 41.195313-13.769532 68.976563-41.144532 27.78125-27.378906 14.382813-40.984374 42.164063-68.363281 27.78125-27.375 41.191406-13.765625 68.984374-41.144531 27.78125-27.375 14.371094-40.984375 42.164063-68.359375l-23.867187-24.226563c.039062-.046874.085937-.082031.132812-.128906zm0 0" fill="#fccd7f"/><path d="m239.785156 28.496094c7.472656 1.582031 12.714844 8.410156 12.183594 16.027344-1.867188 26.675781 11.472656 33.929687 4.414062 67.234374-8.082031 38.160157-26.773437 34.203126-34.855468 72.363282-8.085938 38.160156 10.605468 42.117187 2.519531 80.277344-8.082031 38.15625-26.773437 34.199218-34.855469 72.355468-8.085937 38.160156 10.605469 42.117188 2.519532 80.277344-7.054688 33.300781-22.1875 34.523438-31.300782 59.660156-2.601562 7.183594-10.164062 11.296875-17.636718 9.710938l-130.53125-27.652344c-9.597657-2.035156-14.917969-12.425781-10.875-21.363281 9.1875-20.324219 22.664062-23.636719 29.203124-54.496094 8.082032-38.15625-10.605468-42.117187-2.523437-80.273437 8.085937-38.160157 26.773437-34.199219 34.859375-72.359376 8.082031-38.15625-10.605469-42.117187-2.523438-80.277343 8.085938-38.160157 26.777344-34.199219 34.859376-72.359375 6.539062-30.863282-4.4375-39.355469-4.59375-61.664063-.070313-9.808593 9.003906-17.152343 18.601562-15.117187zm0 0" fill="#ea4444"/><path d="m251.96875 44.519531c-1.867188 26.683594 11.464844 33.933594 4.417969 67.234375-8.089844 38.164063-26.78125 34.207032-34.863281 72.363282-8.082032 38.15625 10.601562 42.121093 2.519531 80.277343-8.082031 38.160157-26.769531 34.203125-34.851563 72.359375-8.082031 38.15625 10.597656 42.121094 2.515625 80.277344-7.046875 33.300781-22.191406 34.523438-31.300781 59.660156-2.601562 7.183594-10.15625 11.296875-17.628906 9.707032l-19.953125-4.222657c6.691406.421875 13.035156-3.554687 15.378906-10.015625 9.109375-25.140625 24.253906-26.359375 31.300781-59.660156 8.082032-38.15625-10.597656-42.121094-2.515625-80.277344 8.082031-38.160156 26.769531-34.199218 34.851563-72.359375 8.089844-38.160156-10.601563-42.121093-2.519532-80.277343 8.082032-38.160157 26.773438-34.199219 34.863282-72.363282 7.050781-33.300781-6.28125-40.550781-4.417969-67.234375.53125-7.613281-4.714844-14.441406-12.1875-16.027343l-110.609375-23.429688c.753906.046875 1.523438.148438 2.285156.308594l130.527344 27.652344c7.472656 1.585937 12.71875 8.414062 12.1875 16.027343zm0 0" fill="#d93131"/><path d="m202.65625 20.628906c-8.085938 38.160156 10.601562 42.121094 2.519531 80.28125-8.085937 38.160156-26.773437 34.199219-34.859375 72.359375-8.082031 38.160157 10.605469 42.121094 2.523438 80.28125-8.085938 38.15625-26.773438 34.195313-34.859375 72.355469-8.082031 38.15625 10.605469 42.117188 2.523437 80.273438-8.085937 38.160156-26.777344 34.199218-34.859375 72.359374l-58.722656-12.441406c8.085937-38.160156 26.773437-34.199218 34.859375-72.355468 8.082031-38.160157-10.605469-42.121094-2.523438-80.277344 8.085938-38.160156 26.773438-34.199219 34.859376-72.355469 8.082031-38.160156-10.605469-42.121094-2.523438-80.277344 8.085938-38.164062 26.777344-34.203125 34.859375-72.363281 8.085937-38.160156-10.605469-42.121094-2.519531-80.28125zm0 0" fill="#fdd79b"/><path d="m202.660156 20.628906c-8.089844 38.164063 10.601563 42.121094 2.519532 80.28125-8.089844 38.160156-26.78125 34.203125-34.863282 72.359375-8.082031 38.160157 10.601563 42.121094 2.519532 80.28125-8.082032 38.15625-26.773438 34.199219-34.855469 72.355469s10.601562 42.121094 2.519531 80.277344c-8.085938 38.152344-26.777344 34.195312-34.859375 72.351562l-25.453125-5.394531c8.101562-37.957031 26.742188-34.078125 34.816406-72.160156 8.082032-38.15625-10.601562-42.121094-2.519531-80.277344 8.082031-38.160156 26.769531-34.199219 34.851563-72.359375 8.082031-38.15625-10.597657-42.121094-2.515626-80.277344 8.082032-38.160156 26.769532-34.199218 34.859376-72.363281 8.082031-38.15625-10.609376-42.117187-2.519532-80.277344l-33.265625-7.050781c.003907-.0625.023438-.117188.035157-.183594zm0 0" fill="#fccd7f"/></svg>