<svg id="Layer_1" height="512" viewBox="0 0 512 512" width="512" xmlns="http://www.w3.org/2000/svg" data-name="Layer 1"><path d="m323.92 294.745a963.394 963.394 0 0 1 -7.36-123.9c.22-41.6 3.11-97.353 7.35-131.493a20.765 20.765 0 0 0 -20.6-23.352h-222.04a20.783 20.783 0 0 0 -20.56 23.66c4.47 32.33 7.63 86.25 8.11 125.94a866.452 866.452 0 0 1 -8.11 128.8 20.733 20.733 0 0 0 20.56 23.6h222.03a20.723 20.723 0 0 0 20.62-23.255z" fill="#aecde2"/><path d="m294.55 171.76c.18-34.23 2.56-83.26 6.05-111.35a17.1 17.1 0 0 0 -16.96-19.21h-182.7a17.12 17.12 0 0 0 -16.92 19.51c3.68 26.61 6.28 74.07 6.67 106.7a713.367 713.367 0 0 1 -6.67 106.01 17.115 17.115 0 0 0 16.92 19.51h15.32a8.469 8.469 0 0 1 8.48 8.47v52.13a3.862 3.862 0 0 0 3.86 3.86h15.73a3.864 3.864 0 0 0 3.87-3.86v-43.75a16.82 16.82 0 1 1 33.64 0v43.75a3.864 3.864 0 0 0 3.87 3.86h15.73a3.862 3.862 0 0 0 3.86-3.86v-43.75a16.825 16.825 0 1 1 33.65 0v43.75a3.862 3.862 0 0 0 3.86 3.86h15.73a3.864 3.864 0 0 0 3.87-3.86v-52.11a8.486 8.486 0 0 1 8.48-8.49h12.75a17.1 17.1 0 0 0 16.96-19.21 794.255 794.255 0 0 1 -6.05-101.96z" fill="#e87187"/><path d="m252.32 103.61v109.31a8.849 8.849 0 0 1 -8.85 8.86h-102.36a8.856 8.856 0 0 1 -8.85-8.86v-109.31a8.864 8.864 0 0 1 8.85-8.87h102.36a8.858 8.858 0 0 1 8.85 8.87z" fill="#a0eaea"/><path d="m162 212.92v-109.31a8.872 8.872 0 0 1 9.11-8.61h-30a8.872 8.872 0 0 0 -9.11 8.61v109.31a9.271 9.271 0 0 0 9.11 9.08h30a9.271 9.271 0 0 1 -9.11-9.08z" fill="#80bcbb"/><g fill="#c6667b"><path d="m146.26 293h-15.32a17.144 17.144 0 0 1 -16.92-19.545 713.62 713.62 0 0 0 6.67-106.028c-.39-32.63-2.99-80.2-6.67-106.808a17.211 17.211 0 0 1 16.92-19.619h-30a17.2 17.2 0 0 0 -16.92 19.61c3.68 26.61 6.28 74.12 6.67 106.75a714.212 714.212 0 0 1 -6.67 106.07 17.164 17.164 0 0 0 16.92 19.57h15.32a8.636 8.636 0 0 1 8.74 8.4v52.13a3.332 3.332 0 0 0 3.6 3.47h15.73a3.383 3.383 0 0 0 3.67-3.47v-43.75a16.81 16.81 0 0 1 5.6-12.407 8.284 8.284 0 0 0 -7.34-4.373z"/><path d="m252.12 292.93a16.761 16.761 0 0 0 -14.969 9.241 16.8 16.8 0 0 1 1.849 7.609v43.75a3.505 3.505 0 0 0 3.81 3.47h15.73a3.217 3.217 0 0 0 3.46-3.47v-52.11a8.638 8.638 0 0 1 1.247-4.077 16.249 16.249 0 0 0 -11.127-4.413z"/><path d="m206.91 297.86a16.715 16.715 0 0 0 -26.809 4.321 16.842 16.842 0 0 1 1.9 7.6v43.75a3.416 3.416 0 0 0 3.71 3.47h15.73a3.3 3.3 0 0 0 3.56-3.47v-43.751a16.9 16.9 0 0 1 3.421-9.956 15.755 15.755 0 0 0 -1.512-1.964z"/></g><path d="m229.266 130.384h-73.946a6 6 0 0 1 0-12h73.946a6 6 0 1 1 0 12z" fill="#649391"/><path d="m229.266 164.263h-73.946a6 6 0 0 1 0-12h73.946a6 6 0 0 1 0 12z" fill="#649391"/><path d="m229.266 198.143h-73.946a6 6 0 0 1 0-12h73.946a6 6 0 0 1 0 12z" fill="#649391"/><path d="m397.63 502h-1.346a45.44 45.44 0 0 1 -45.356-45.421v-65.571a33.357 33.357 0 1 0 -66.714 0v29.651a45.44 45.44 0 0 1 -45.356 45.421h-6.208a45.441 45.441 0 0 1 -45.357-45.421v-63.266h12v63.266a33.427 33.427 0 0 0 33.357 33.421h6.208a33.426 33.426 0 0 0 33.356-33.421v-29.651a45.357 45.357 0 1 1 90.714 0v65.571a33.426 33.426 0 0 0 33.356 33.421h1.346a33.426 33.426 0 0 0 33.356-33.421v-230.736h12v230.736a45.44 45.44 0 0 1 -45.356 45.421z" fill="#b0b5ca"/><path d="m435.986 160.656a6 6 0 0 1 -6-6v-44.07a6 6 0 0 1 12 0v44.07a6 6 0 0 1 -6 6z" fill="#6d7486"/><path d="m110.357 157.666a6 6 0 0 1 -5.994-5.83c-.626-22.013-1.941-45.814-3.608-65.3a6 6 0 1 1 11.956-1.023c1.686 19.7 3.015 43.754 3.647 65.984a6 6 0 0 1 -5.827 6.168z" fill="#f4f8fc"/><path d="m104.886 72.572a6 6 0 0 1 -5.952-5.3c-.15-1.281-.3-2.224-.469-3.223-.128-.783-.257-1.574-.388-2.521a6 6 0 1 1 11.886-1.644c.116.836.231 1.533.344 2.223.178 1.087.362 2.212.545 3.763a6 6 0 0 1 -5.258 6.66 6.065 6.065 0 0 1 -.708.042z" fill="#f4f8fc"/><path d="m451.49 197.76v20a14.075 14.075 0 0 1 -14.08 14.08h-1.07a14.081 14.081 0 0 1 -14.08-14.08v-20z" fill="#7d8595"/><path d="m451.49 165.74v32.02h-29.23v-32.02a14.081 14.081 0 0 1 14.08-14.08h1.07a14.075 14.075 0 0 1 14.08 14.08z" fill="#b0b5ca"/></svg>